<mxfile host="app.diagrams.net" modified="2021-07-20T19:44:37.776Z" agent="5.0 (Windows NT 10.0; Win64; x64) AppleWebKit/537.36 (KHTML, like Gecko) Chrome/91.0.4472.124 Safari/537.36" etag="P7ahFONbbTMDzS07pPmU" version="14.9.0" type="github">
  <diagram id="C5RBs43oDa-KdzZeNtuy" name="Page-1">
    <mxGraphModel dx="318" dy="444" grid="1" gridSize="10" guides="1" tooltips="1" connect="1" arrows="1" fold="1" page="1" pageScale="1" pageWidth="827" pageHeight="1169" math="0" shadow="0">
      <root>
        <mxCell id="WIyWlLk6GJQsqaUBKTNV-0" />
        <mxCell id="WIyWlLk6GJQsqaUBKTNV-1" parent="WIyWlLk6GJQsqaUBKTNV-0" />
        <mxCell id="J4wgWrxB4ma67eAixFHz-62" value="" style="shape=folder;fontStyle=1;spacingTop=10;tabWidth=120;tabHeight=30;tabPosition=left;html=1;noLabel=0;overflow=visible;direction=east;labelPadding=0;container=0;connectable=1;snapToPoint=0;" parent="WIyWlLk6GJQsqaUBKTNV-1" vertex="1">
          <mxGeometry x="20" y="90" width="1980" height="1060" as="geometry">
            <mxRectangle x="20" y="90" width="80" height="30" as="alternateBounds" />
          </mxGeometry>
        </mxCell>
        <mxCell id="J4wgWrxB4ma67eAixFHz-11" value="AnagraficheModel" style="swimlane;fontStyle=1;align=center;verticalAlign=top;childLayout=stackLayout;horizontal=1;startSize=26;horizontalStack=0;resizeParent=1;resizeParentMax=0;resizeLast=0;collapsible=1;marginBottom=0;" parent="WIyWlLk6GJQsqaUBKTNV-1" vertex="1">
          <mxGeometry x="90" y="190" width="251" height="528" as="geometry" />
        </mxCell>
        <mxCell id="J4wgWrxB4ma67eAixFHz-12" value="+ db: Connection" style="text;strokeColor=none;fillColor=none;align=left;verticalAlign=top;spacingLeft=4;spacingRight=4;overflow=hidden;rotatable=0;points=[[0,0.5],[1,0.5]];portConstraint=eastwest;" parent="J4wgWrxB4ma67eAixFHz-11" vertex="1">
          <mxGeometry y="26" width="251" height="26" as="geometry" />
        </mxCell>
        <mxCell id="J4wgWrxB4ma67eAixFHz-15" value="+ listaclienti: list" style="text;strokeColor=none;fillColor=none;align=left;verticalAlign=top;spacingLeft=4;spacingRight=4;overflow=hidden;rotatable=0;points=[[0,0.5],[1,0.5]];portConstraint=eastwest;" parent="J4wgWrxB4ma67eAixFHz-11" vertex="1">
          <mxGeometry y="52" width="251" height="26" as="geometry" />
        </mxCell>
        <mxCell id="J4wgWrxB4ma67eAixFHz-7" value="+ listafornitori: list" style="text;strokeColor=none;fillColor=none;align=left;verticalAlign=top;spacingLeft=4;spacingRight=4;overflow=hidden;rotatable=0;points=[[0,0.5],[1,0.5]];portConstraint=eastwest;" parent="J4wgWrxB4ma67eAixFHz-11" vertex="1">
          <mxGeometry y="78" width="251" height="26" as="geometry" />
        </mxCell>
        <mxCell id="J4wgWrxB4ma67eAixFHz-9" value="+ listadipendenti: list" style="text;strokeColor=none;fillColor=none;align=left;verticalAlign=top;spacingLeft=4;spacingRight=4;overflow=hidden;rotatable=0;points=[[0,0.5],[1,0.5]];portConstraint=eastwest;" parent="J4wgWrxB4ma67eAixFHz-11" vertex="1">
          <mxGeometry y="104" width="251" height="26" as="geometry" />
        </mxCell>
        <mxCell id="J4wgWrxB4ma67eAixFHz-13" value="" style="line;strokeWidth=1;fillColor=none;align=left;verticalAlign=middle;spacingTop=-1;spacingLeft=3;spacingRight=3;rotatable=0;labelPosition=right;points=[];portConstraint=eastwest;" parent="J4wgWrxB4ma67eAixFHz-11" vertex="1">
          <mxGeometry y="130" width="251" height="8" as="geometry" />
        </mxCell>
        <mxCell id="J4wgWrxB4ma67eAixFHz-14" value="+ update_listaclienti(): void" style="text;strokeColor=none;fillColor=none;align=left;verticalAlign=top;spacingLeft=4;spacingRight=4;overflow=hidden;rotatable=0;points=[[0,0.5],[1,0.5]];portConstraint=eastwest;" parent="J4wgWrxB4ma67eAixFHz-11" vertex="1">
          <mxGeometry y="138" width="251" height="26" as="geometry" />
        </mxCell>
        <mxCell id="J4wgWrxB4ma67eAixFHz-17" value="+ add_cliente(ClienteModel): void" style="text;strokeColor=none;fillColor=none;align=left;verticalAlign=top;spacingLeft=4;spacingRight=4;overflow=hidden;rotatable=0;points=[[0,0.5],[1,0.5]];portConstraint=eastwest;" parent="J4wgWrxB4ma67eAixFHz-11" vertex="1">
          <mxGeometry y="164" width="251" height="26" as="geometry" />
        </mxCell>
        <mxCell id="J4wgWrxB4ma67eAixFHz-18" value="+ salva_cliente(ClienteModel): void" style="text;strokeColor=none;fillColor=none;align=left;verticalAlign=top;spacingLeft=4;spacingRight=4;overflow=hidden;rotatable=0;points=[[0,0.5],[1,0.5]];portConstraint=eastwest;" parent="J4wgWrxB4ma67eAixFHz-11" vertex="1">
          <mxGeometry y="190" width="251" height="26" as="geometry" />
        </mxCell>
        <mxCell id="J4wgWrxB4ma67eAixFHz-19" value="+ ricerca_cliente(list): list" style="text;strokeColor=none;fillColor=none;align=left;verticalAlign=top;spacingLeft=4;spacingRight=4;overflow=hidden;rotatable=0;points=[[0,0.5],[1,0.5]];portConstraint=eastwest;" parent="J4wgWrxB4ma67eAixFHz-11" vertex="1">
          <mxGeometry y="216" width="251" height="26" as="geometry" />
        </mxCell>
        <mxCell id="J4wgWrxB4ma67eAixFHz-20" value="+ elimina_clienti(list): void" style="text;strokeColor=none;fillColor=none;align=left;verticalAlign=top;spacingLeft=4;spacingRight=4;overflow=hidden;rotatable=0;points=[[0,0.5],[1,0.5]];portConstraint=eastwest;" parent="J4wgWrxB4ma67eAixFHz-11" vertex="1">
          <mxGeometry y="242" width="251" height="26" as="geometry" />
        </mxCell>
        <mxCell id="J4wgWrxB4ma67eAixFHz-22" value="+ update_listadipendenti(): void" style="text;strokeColor=none;fillColor=none;align=left;verticalAlign=top;spacingLeft=4;spacingRight=4;overflow=hidden;rotatable=0;points=[[0,0.5],[1,0.5]];portConstraint=eastwest;" parent="J4wgWrxB4ma67eAixFHz-11" vertex="1">
          <mxGeometry y="268" width="251" height="26" as="geometry" />
        </mxCell>
        <mxCell id="J4wgWrxB4ma67eAixFHz-23" value="+ add_dipendente(DipendenteModel): void" style="text;strokeColor=none;fillColor=none;align=left;verticalAlign=top;spacingLeft=4;spacingRight=4;overflow=hidden;rotatable=0;points=[[0,0.5],[1,0.5]];portConstraint=eastwest;" parent="J4wgWrxB4ma67eAixFHz-11" vertex="1">
          <mxGeometry y="294" width="251" height="26" as="geometry" />
        </mxCell>
        <mxCell id="J4wgWrxB4ma67eAixFHz-24" value="+ salva_dipendente(DipendenteModel): void" style="text;strokeColor=none;fillColor=none;align=left;verticalAlign=top;spacingLeft=4;spacingRight=4;overflow=hidden;rotatable=0;points=[[0,0.5],[1,0.5]];portConstraint=eastwest;" parent="J4wgWrxB4ma67eAixFHz-11" vertex="1">
          <mxGeometry y="320" width="251" height="26" as="geometry" />
        </mxCell>
        <mxCell id="J4wgWrxB4ma67eAixFHz-25" value="+ ricerca_dipendente(list): list" style="text;strokeColor=none;fillColor=none;align=left;verticalAlign=top;spacingLeft=4;spacingRight=4;overflow=hidden;rotatable=0;points=[[0,0.5],[1,0.5]];portConstraint=eastwest;" parent="J4wgWrxB4ma67eAixFHz-11" vertex="1">
          <mxGeometry y="346" width="251" height="26" as="geometry" />
        </mxCell>
        <mxCell id="J4wgWrxB4ma67eAixFHz-26" value="+ elimina_dipendenti(list): void" style="text;strokeColor=none;fillColor=none;align=left;verticalAlign=top;spacingLeft=4;spacingRight=4;overflow=hidden;rotatable=0;points=[[0,0.5],[1,0.5]];portConstraint=eastwest;" parent="J4wgWrxB4ma67eAixFHz-11" vertex="1">
          <mxGeometry y="372" width="251" height="26" as="geometry" />
        </mxCell>
        <mxCell id="J4wgWrxB4ma67eAixFHz-36" value="+ update_listafornitori(): void" style="text;strokeColor=none;fillColor=none;align=left;verticalAlign=top;spacingLeft=4;spacingRight=4;overflow=hidden;rotatable=0;points=[[0,0.5],[1,0.5]];portConstraint=eastwest;" parent="J4wgWrxB4ma67eAixFHz-11" vertex="1">
          <mxGeometry y="398" width="251" height="26" as="geometry" />
        </mxCell>
        <mxCell id="J4wgWrxB4ma67eAixFHz-37" value="+ add_fornitore(FornitoreModel): void" style="text;strokeColor=none;fillColor=none;align=left;verticalAlign=top;spacingLeft=4;spacingRight=4;overflow=hidden;rotatable=0;points=[[0,0.5],[1,0.5]];portConstraint=eastwest;" parent="J4wgWrxB4ma67eAixFHz-11" vertex="1">
          <mxGeometry y="424" width="251" height="26" as="geometry" />
        </mxCell>
        <mxCell id="J4wgWrxB4ma67eAixFHz-38" value="+ salva_fornitore(FornitoreModel): void" style="text;strokeColor=none;fillColor=none;align=left;verticalAlign=top;spacingLeft=4;spacingRight=4;overflow=hidden;rotatable=0;points=[[0,0.5],[1,0.5]];portConstraint=eastwest;" parent="J4wgWrxB4ma67eAixFHz-11" vertex="1">
          <mxGeometry y="450" width="251" height="26" as="geometry" />
        </mxCell>
        <mxCell id="J4wgWrxB4ma67eAixFHz-39" value="+ ricerca_fornitore(list): list" style="text;strokeColor=none;fillColor=none;align=left;verticalAlign=top;spacingLeft=4;spacingRight=4;overflow=hidden;rotatable=0;points=[[0,0.5],[1,0.5]];portConstraint=eastwest;" parent="J4wgWrxB4ma67eAixFHz-11" vertex="1">
          <mxGeometry y="476" width="251" height="26" as="geometry" />
        </mxCell>
        <mxCell id="J4wgWrxB4ma67eAixFHz-40" value="+ elimina_fornitori(list): void" style="text;strokeColor=none;fillColor=none;align=left;verticalAlign=top;spacingLeft=4;spacingRight=4;overflow=hidden;rotatable=0;points=[[0,0.5],[1,0.5]];portConstraint=eastwest;" parent="J4wgWrxB4ma67eAixFHz-11" vertex="1">
          <mxGeometry y="502" width="251" height="26" as="geometry" />
        </mxCell>
        <mxCell id="J4wgWrxB4ma67eAixFHz-63" value="&lt;b&gt;&lt;font style=&quot;font-size: 18px&quot;&gt;anagrafiche&lt;/font&gt;&lt;/b&gt;" style="text;html=1;strokeColor=none;fillColor=none;align=center;verticalAlign=middle;whiteSpace=wrap;rounded=0;" parent="WIyWlLk6GJQsqaUBKTNV-1" vertex="1">
          <mxGeometry x="20" y="90" width="120" height="30" as="geometry" />
        </mxCell>
        <mxCell id="J4wgWrxB4ma67eAixFHz-69" value="" style="group" parent="WIyWlLk6GJQsqaUBKTNV-1" vertex="1" connectable="0">
          <mxGeometry x="410" y="140" width="330" height="600" as="geometry" />
        </mxCell>
        <mxCell id="J4wgWrxB4ma67eAixFHz-67" value="" style="shape=folder;fontStyle=1;spacingTop=10;tabWidth=120;tabHeight=30;tabPosition=left;html=1;fillColor=none;" parent="J4wgWrxB4ma67eAixFHz-69" vertex="1">
          <mxGeometry width="330" height="600" as="geometry" />
        </mxCell>
        <mxCell id="J4wgWrxB4ma67eAixFHz-68" value="&lt;span style=&quot;font-size: 18px&quot;&gt;&lt;b&gt;controller&lt;/b&gt;&lt;/span&gt;" style="text;html=1;strokeColor=none;fillColor=none;align=center;verticalAlign=middle;whiteSpace=wrap;rounded=0;" parent="J4wgWrxB4ma67eAixFHz-69" vertex="1">
          <mxGeometry width="120" height="30" as="geometry" />
        </mxCell>
        <mxCell id="J4wgWrxB4ma67eAixFHz-41" value="AnagraficheView" style="swimlane;fontStyle=1;align=center;verticalAlign=top;childLayout=stackLayout;horizontal=1;startSize=26;horizontalStack=0;resizeParent=1;resizeParentMax=0;resizeLast=0;collapsible=1;marginBottom=0;" parent="J4wgWrxB4ma67eAixFHz-69" vertex="1">
          <mxGeometry x="39.5" y="50" width="251" height="450" as="geometry" />
        </mxCell>
        <mxCell id="J4wgWrxB4ma67eAixFHz-42" value="+ model: AnagraficheModel" style="text;strokeColor=none;fillColor=none;align=left;verticalAlign=top;spacingLeft=4;spacingRight=4;overflow=hidden;rotatable=0;points=[[0,0.5],[1,0.5]];portConstraint=eastwest;" parent="J4wgWrxB4ma67eAixFHz-41" vertex="1">
          <mxGeometry y="26" width="251" height="26" as="geometry" />
        </mxCell>
        <mxCell id="J4wgWrxB4ma67eAixFHz-46" value="" style="line;strokeWidth=1;fillColor=none;align=left;verticalAlign=middle;spacingTop=-1;spacingLeft=3;spacingRight=3;rotatable=0;labelPosition=right;points=[];portConstraint=eastwest;" parent="J4wgWrxB4ma67eAixFHz-41" vertex="1">
          <mxGeometry y="52" width="251" height="8" as="geometry" />
        </mxCell>
        <mxCell id="J4wgWrxB4ma67eAixFHz-47" value="+ get_listaclienti(): list" style="text;strokeColor=none;fillColor=none;align=left;verticalAlign=top;spacingLeft=4;spacingRight=4;overflow=hidden;rotatable=0;points=[[0,0.5],[1,0.5]];portConstraint=eastwest;" parent="J4wgWrxB4ma67eAixFHz-41" vertex="1">
          <mxGeometry y="60" width="251" height="26" as="geometry" />
        </mxCell>
        <mxCell id="J4wgWrxB4ma67eAixFHz-48" value="+ add_cliente(ClienteModel): void" style="text;strokeColor=none;fillColor=none;align=left;verticalAlign=top;spacingLeft=4;spacingRight=4;overflow=hidden;rotatable=0;points=[[0,0.5],[1,0.5]];portConstraint=eastwest;" parent="J4wgWrxB4ma67eAixFHz-41" vertex="1">
          <mxGeometry y="86" width="251" height="26" as="geometry" />
        </mxCell>
        <mxCell id="J4wgWrxB4ma67eAixFHz-49" value="+ salva_cliente(ClienteModel): void" style="text;strokeColor=none;fillColor=none;align=left;verticalAlign=top;spacingLeft=4;spacingRight=4;overflow=hidden;rotatable=0;points=[[0,0.5],[1,0.5]];portConstraint=eastwest;" parent="J4wgWrxB4ma67eAixFHz-41" vertex="1">
          <mxGeometry y="112" width="251" height="26" as="geometry" />
        </mxCell>
        <mxCell id="J4wgWrxB4ma67eAixFHz-50" value="+ ricerca_cliente(list): list" style="text;strokeColor=none;fillColor=none;align=left;verticalAlign=top;spacingLeft=4;spacingRight=4;overflow=hidden;rotatable=0;points=[[0,0.5],[1,0.5]];portConstraint=eastwest;" parent="J4wgWrxB4ma67eAixFHz-41" vertex="1">
          <mxGeometry y="138" width="251" height="26" as="geometry" />
        </mxCell>
        <mxCell id="J4wgWrxB4ma67eAixFHz-51" value="+ elimina_clienti(list): void" style="text;strokeColor=none;fillColor=none;align=left;verticalAlign=top;spacingLeft=4;spacingRight=4;overflow=hidden;rotatable=0;points=[[0,0.5],[1,0.5]];portConstraint=eastwest;" parent="J4wgWrxB4ma67eAixFHz-41" vertex="1">
          <mxGeometry y="164" width="251" height="26" as="geometry" />
        </mxCell>
        <mxCell id="J4wgWrxB4ma67eAixFHz-52" value="+ get_listadipendenti(): list" style="text;strokeColor=none;fillColor=none;align=left;verticalAlign=top;spacingLeft=4;spacingRight=4;overflow=hidden;rotatable=0;points=[[0,0.5],[1,0.5]];portConstraint=eastwest;" parent="J4wgWrxB4ma67eAixFHz-41" vertex="1">
          <mxGeometry y="190" width="251" height="26" as="geometry" />
        </mxCell>
        <mxCell id="J4wgWrxB4ma67eAixFHz-53" value="+ add_dipendente(DipendenteModel): void" style="text;strokeColor=none;fillColor=none;align=left;verticalAlign=top;spacingLeft=4;spacingRight=4;overflow=hidden;rotatable=0;points=[[0,0.5],[1,0.5]];portConstraint=eastwest;" parent="J4wgWrxB4ma67eAixFHz-41" vertex="1">
          <mxGeometry y="216" width="251" height="26" as="geometry" />
        </mxCell>
        <mxCell id="J4wgWrxB4ma67eAixFHz-54" value="+ salva_dipendente(DipendenteModel): void" style="text;strokeColor=none;fillColor=none;align=left;verticalAlign=top;spacingLeft=4;spacingRight=4;overflow=hidden;rotatable=0;points=[[0,0.5],[1,0.5]];portConstraint=eastwest;" parent="J4wgWrxB4ma67eAixFHz-41" vertex="1">
          <mxGeometry y="242" width="251" height="26" as="geometry" />
        </mxCell>
        <mxCell id="J4wgWrxB4ma67eAixFHz-55" value="+ ricerca_dipendente(list): list" style="text;strokeColor=none;fillColor=none;align=left;verticalAlign=top;spacingLeft=4;spacingRight=4;overflow=hidden;rotatable=0;points=[[0,0.5],[1,0.5]];portConstraint=eastwest;" parent="J4wgWrxB4ma67eAixFHz-41" vertex="1">
          <mxGeometry y="268" width="251" height="26" as="geometry" />
        </mxCell>
        <mxCell id="J4wgWrxB4ma67eAixFHz-56" value="+ elimina_dipendenti(list): void" style="text;strokeColor=none;fillColor=none;align=left;verticalAlign=top;spacingLeft=4;spacingRight=4;overflow=hidden;rotatable=0;points=[[0,0.5],[1,0.5]];portConstraint=eastwest;" parent="J4wgWrxB4ma67eAixFHz-41" vertex="1">
          <mxGeometry y="294" width="251" height="26" as="geometry" />
        </mxCell>
        <mxCell id="J4wgWrxB4ma67eAixFHz-57" value="+ get_listafornitori(): void" style="text;strokeColor=none;fillColor=none;align=left;verticalAlign=top;spacingLeft=4;spacingRight=4;overflow=hidden;rotatable=0;points=[[0,0.5],[1,0.5]];portConstraint=eastwest;" parent="J4wgWrxB4ma67eAixFHz-41" vertex="1">
          <mxGeometry y="320" width="251" height="26" as="geometry" />
        </mxCell>
        <mxCell id="J4wgWrxB4ma67eAixFHz-58" value="+ add_fornitore(FornitoreModel): void" style="text;strokeColor=none;fillColor=none;align=left;verticalAlign=top;spacingLeft=4;spacingRight=4;overflow=hidden;rotatable=0;points=[[0,0.5],[1,0.5]];portConstraint=eastwest;" parent="J4wgWrxB4ma67eAixFHz-41" vertex="1">
          <mxGeometry y="346" width="251" height="26" as="geometry" />
        </mxCell>
        <mxCell id="J4wgWrxB4ma67eAixFHz-59" value="+ salva_fornitore(FornitoreModel): void" style="text;strokeColor=none;fillColor=none;align=left;verticalAlign=top;spacingLeft=4;spacingRight=4;overflow=hidden;rotatable=0;points=[[0,0.5],[1,0.5]];portConstraint=eastwest;" parent="J4wgWrxB4ma67eAixFHz-41" vertex="1">
          <mxGeometry y="372" width="251" height="26" as="geometry" />
        </mxCell>
        <mxCell id="J4wgWrxB4ma67eAixFHz-60" value="+ ricerca_fornitore(list): list" style="text;strokeColor=none;fillColor=none;align=left;verticalAlign=top;spacingLeft=4;spacingRight=4;overflow=hidden;rotatable=0;points=[[0,0.5],[1,0.5]];portConstraint=eastwest;" parent="J4wgWrxB4ma67eAixFHz-41" vertex="1">
          <mxGeometry y="398" width="251" height="26" as="geometry" />
        </mxCell>
        <mxCell id="J4wgWrxB4ma67eAixFHz-61" value="+ elimina_fornitori(list): void" style="text;strokeColor=none;fillColor=none;align=left;verticalAlign=top;spacingLeft=4;spacingRight=4;overflow=hidden;rotatable=0;points=[[0,0.5],[1,0.5]];portConstraint=eastwest;" parent="J4wgWrxB4ma67eAixFHz-41" vertex="1">
          <mxGeometry y="424" width="251" height="26" as="geometry" />
        </mxCell>
        <mxCell id="J4wgWrxB4ma67eAixFHz-71" value="" style="group" parent="WIyWlLk6GJQsqaUBKTNV-1" vertex="1" connectable="0">
          <mxGeometry x="50" y="140" width="330" height="600" as="geometry" />
        </mxCell>
        <mxCell id="J4wgWrxB4ma67eAixFHz-64" value="" style="shape=folder;fontStyle=1;spacingTop=10;tabWidth=120;tabHeight=30;tabPosition=left;html=1;fillColor=none;" parent="J4wgWrxB4ma67eAixFHz-71" vertex="1">
          <mxGeometry width="330" height="600" as="geometry" />
        </mxCell>
        <mxCell id="J4wgWrxB4ma67eAixFHz-65" value="&lt;font style=&quot;font-size: 18px&quot;&gt;&lt;b&gt;model&lt;/b&gt;&lt;/font&gt;" style="text;html=1;strokeColor=none;fillColor=none;align=center;verticalAlign=middle;whiteSpace=wrap;rounded=0;" parent="J4wgWrxB4ma67eAixFHz-71" vertex="1">
          <mxGeometry width="120" height="30" as="geometry" />
        </mxCell>
        <mxCell id="Y3e_ZOHxvSrWSQM1bqO8-0" value="" style="group" vertex="1" connectable="0" parent="WIyWlLk6GJQsqaUBKTNV-1">
          <mxGeometry x="810" y="140" width="970" height="1000" as="geometry" />
        </mxCell>
        <mxCell id="Y3e_ZOHxvSrWSQM1bqO8-1" value="" style="shape=folder;fontStyle=1;spacingTop=10;tabWidth=120;tabHeight=30;tabPosition=left;html=1;fillColor=none;" vertex="1" parent="Y3e_ZOHxvSrWSQM1bqO8-0">
          <mxGeometry width="970" height="1000" as="geometry" />
        </mxCell>
        <mxCell id="Y3e_ZOHxvSrWSQM1bqO8-2" value="&lt;span style=&quot;font-size: 18px&quot;&gt;&lt;b&gt;view&lt;/b&gt;&lt;/span&gt;" style="text;html=1;strokeColor=none;fillColor=none;align=center;verticalAlign=middle;whiteSpace=wrap;rounded=0;" vertex="1" parent="Y3e_ZOHxvSrWSQM1bqO8-0">
          <mxGeometry width="138.46153846153845" height="30" as="geometry" />
        </mxCell>
        <mxCell id="Y3e_ZOHxvSrWSQM1bqO8-3" value="AnagraficheView" style="swimlane;fontStyle=1;align=center;verticalAlign=top;childLayout=stackLayout;horizontal=1;startSize=26;horizontalStack=0;resizeParent=1;resizeParentMax=0;resizeLast=0;collapsible=1;marginBottom=0;" vertex="1" parent="Y3e_ZOHxvSrWSQM1bqO8-0">
          <mxGeometry x="15.379999999999997" y="50" width="350" height="944" as="geometry" />
        </mxCell>
        <mxCell id="Y3e_ZOHxvSrWSQM1bqO8-4" value="+ controller: AnagraficheController&#xa;" style="text;strokeColor=none;fillColor=none;align=left;verticalAlign=top;spacingLeft=4;spacingRight=4;overflow=hidden;rotatable=0;points=[[0,0.5],[1,0.5]];portConstraint=eastwest;" vertex="1" parent="Y3e_ZOHxvSrWSQM1bqO8-3">
          <mxGeometry y="26" width="350" height="26" as="geometry" />
        </mxCell>
        <mxCell id="Y3e_ZOHxvSrWSQM1bqO8-21" value="+ dipendente: DipendenteModel&#xa;" style="text;strokeColor=none;fillColor=none;align=left;verticalAlign=top;spacingLeft=4;spacingRight=4;overflow=hidden;rotatable=0;points=[[0,0.5],[1,0.5]];portConstraint=eastwest;" vertex="1" parent="Y3e_ZOHxvSrWSQM1bqO8-3">
          <mxGeometry y="52" width="350" height="26" as="geometry" />
        </mxCell>
        <mxCell id="Y3e_ZOHxvSrWSQM1bqO8-22" value="+ controller_cliente: ClienteController" style="text;strokeColor=none;fillColor=none;align=left;verticalAlign=top;spacingLeft=4;spacingRight=4;overflow=hidden;rotatable=0;points=[[0,0.5],[1,0.5]];portConstraint=eastwest;" vertex="1" parent="Y3e_ZOHxvSrWSQM1bqO8-3">
          <mxGeometry y="78" width="350" height="26" as="geometry" />
        </mxCell>
        <mxCell id="Y3e_ZOHxvSrWSQM1bqO8-23" value="+ controller_fornitore: FornitoreController&#xa;" style="text;strokeColor=none;fillColor=none;align=left;verticalAlign=top;spacingLeft=4;spacingRight=4;overflow=hidden;rotatable=0;points=[[0,0.5],[1,0.5]];portConstraint=eastwest;" vertex="1" parent="Y3e_ZOHxvSrWSQM1bqO8-3">
          <mxGeometry y="104" width="350" height="26" as="geometry" />
        </mxCell>
        <mxCell id="Y3e_ZOHxvSrWSQM1bqO8-25" value="+ controller_dipendente: DipendenteController&#xa;" style="text;strokeColor=none;fillColor=none;align=left;verticalAlign=top;spacingLeft=4;spacingRight=4;overflow=hidden;rotatable=0;points=[[0,0.5],[1,0.5]];portConstraint=eastwest;" vertex="1" parent="Y3e_ZOHxvSrWSQM1bqO8-3">
          <mxGeometry y="130" width="350" height="26" as="geometry" />
        </mxCell>
        <mxCell id="Y3e_ZOHxvSrWSQM1bqO8-5" value="" style="line;strokeWidth=1;fillColor=none;align=left;verticalAlign=middle;spacingTop=-1;spacingLeft=3;spacingRight=3;rotatable=0;labelPosition=right;points=[];portConstraint=eastwest;" vertex="1" parent="Y3e_ZOHxvSrWSQM1bqO8-3">
          <mxGeometry y="156" width="350" height="8" as="geometry" />
        </mxCell>
        <mxCell id="Y3e_ZOHxvSrWSQM1bqO8-6" value="+ connectAction(): void" style="text;strokeColor=none;fillColor=none;align=left;verticalAlign=top;spacingLeft=4;spacingRight=4;overflow=hidden;rotatable=0;points=[[0,0.5],[1,0.5]];portConstraint=eastwest;" vertex="1" parent="Y3e_ZOHxvSrWSQM1bqO8-3">
          <mxGeometry y="164" width="350" height="26" as="geometry" />
        </mxCell>
        <mxCell id="Y3e_ZOHxvSrWSQM1bqO8-7" value="+ add_cliente(): void" style="text;strokeColor=none;fillColor=none;align=left;verticalAlign=top;spacingLeft=4;spacingRight=4;overflow=hidden;rotatable=0;points=[[0,0.5],[1,0.5]];portConstraint=eastwest;" vertex="1" parent="Y3e_ZOHxvSrWSQM1bqO8-3">
          <mxGeometry y="190" width="350" height="26" as="geometry" />
        </mxCell>
        <mxCell id="Y3e_ZOHxvSrWSQM1bqO8-29" value="+ modifica_cliente(): void" style="text;strokeColor=none;fillColor=none;align=left;verticalAlign=top;spacingLeft=4;spacingRight=4;overflow=hidden;rotatable=0;points=[[0,0.5],[1,0.5]];portConstraint=eastwest;" vertex="1" parent="Y3e_ZOHxvSrWSQM1bqO8-3">
          <mxGeometry y="216" width="350" height="26" as="geometry" />
        </mxCell>
        <mxCell id="Y3e_ZOHxvSrWSQM1bqO8-10" value="+ elimina_cliente(): void" style="text;strokeColor=none;fillColor=none;align=left;verticalAlign=top;spacingLeft=4;spacingRight=4;overflow=hidden;rotatable=0;points=[[0,0.5],[1,0.5]];portConstraint=eastwest;" vertex="1" parent="Y3e_ZOHxvSrWSQM1bqO8-3">
          <mxGeometry y="242" width="350" height="26" as="geometry" />
        </mxCell>
        <mxCell id="Y3e_ZOHxvSrWSQM1bqO8-8" value="+ salva_cliente(): void" style="text;strokeColor=none;fillColor=none;align=left;verticalAlign=top;spacingLeft=4;spacingRight=4;overflow=hidden;rotatable=0;points=[[0,0.5],[1,0.5]];portConstraint=eastwest;" vertex="1" parent="Y3e_ZOHxvSrWSQM1bqO8-3">
          <mxGeometry y="268" width="350" height="26" as="geometry" />
        </mxCell>
        <mxCell id="Y3e_ZOHxvSrWSQM1bqO8-9" value="+ ricerca_cliente(): void" style="text;strokeColor=none;fillColor=none;align=left;verticalAlign=top;spacingLeft=4;spacingRight=4;overflow=hidden;rotatable=0;points=[[0,0.5],[1,0.5]];portConstraint=eastwest;" vertex="1" parent="Y3e_ZOHxvSrWSQM1bqO8-3">
          <mxGeometry y="294" width="350" height="26" as="geometry" />
        </mxCell>
        <mxCell id="Y3e_ZOHxvSrWSQM1bqO8-54" value="+ annula_cliente(): void" style="text;strokeColor=none;fillColor=none;align=left;verticalAlign=top;spacingLeft=4;spacingRight=4;overflow=hidden;rotatable=0;points=[[0,0.5],[1,0.5]];portConstraint=eastwest;" vertex="1" parent="Y3e_ZOHxvSrWSQM1bqO8-3">
          <mxGeometry y="320" width="350" height="26" as="geometry" />
        </mxCell>
        <mxCell id="Y3e_ZOHxvSrWSQM1bqO8-55" value="+ get_info_cliente_from_view(): tuple" style="text;strokeColor=none;fillColor=none;align=left;verticalAlign=top;spacingLeft=4;spacingRight=4;overflow=hidden;rotatable=0;points=[[0,0.5],[1,0.5]];portConstraint=eastwest;" vertex="1" parent="Y3e_ZOHxvSrWSQM1bqO8-3">
          <mxGeometry y="346" width="350" height="26" as="geometry" />
        </mxCell>
        <mxCell id="Y3e_ZOHxvSrWSQM1bqO8-12" value="+ add_dipendente(): void" style="text;strokeColor=none;fillColor=none;align=left;verticalAlign=top;spacingLeft=4;spacingRight=4;overflow=hidden;rotatable=0;points=[[0,0.5],[1,0.5]];portConstraint=eastwest;" vertex="1" parent="Y3e_ZOHxvSrWSQM1bqO8-3">
          <mxGeometry y="372" width="350" height="26" as="geometry" />
        </mxCell>
        <mxCell id="Y3e_ZOHxvSrWSQM1bqO8-13" value="+ modifica_dipendente(): void" style="text;strokeColor=none;fillColor=none;align=left;verticalAlign=top;spacingLeft=4;spacingRight=4;overflow=hidden;rotatable=0;points=[[0,0.5],[1,0.5]];portConstraint=eastwest;" vertex="1" parent="Y3e_ZOHxvSrWSQM1bqO8-3">
          <mxGeometry y="398" width="350" height="26" as="geometry" />
        </mxCell>
        <mxCell id="Y3e_ZOHxvSrWSQM1bqO8-15" value="+ elimina_dipendenti(): void" style="text;strokeColor=none;fillColor=none;align=left;verticalAlign=top;spacingLeft=4;spacingRight=4;overflow=hidden;rotatable=0;points=[[0,0.5],[1,0.5]];portConstraint=eastwest;" vertex="1" parent="Y3e_ZOHxvSrWSQM1bqO8-3">
          <mxGeometry y="424" width="350" height="26" as="geometry" />
        </mxCell>
        <mxCell id="Y3e_ZOHxvSrWSQM1bqO8-14" value="+ ricerca_dipendente(): void" style="text;strokeColor=none;fillColor=none;align=left;verticalAlign=top;spacingLeft=4;spacingRight=4;overflow=hidden;rotatable=0;points=[[0,0.5],[1,0.5]];portConstraint=eastwest;" vertex="1" parent="Y3e_ZOHxvSrWSQM1bqO8-3">
          <mxGeometry y="450" width="350" height="26" as="geometry" />
        </mxCell>
        <mxCell id="Y3e_ZOHxvSrWSQM1bqO8-56" value="+ salva_dipendente(): void" style="text;strokeColor=none;fillColor=none;align=left;verticalAlign=top;spacingLeft=4;spacingRight=4;overflow=hidden;rotatable=0;points=[[0,0.5],[1,0.5]];portConstraint=eastwest;" vertex="1" parent="Y3e_ZOHxvSrWSQM1bqO8-3">
          <mxGeometry y="476" width="350" height="26" as="geometry" />
        </mxCell>
        <mxCell id="Y3e_ZOHxvSrWSQM1bqO8-53" value="+ on_annula_dipendente_clicked(): void" style="text;strokeColor=none;fillColor=none;align=left;verticalAlign=top;spacingLeft=4;spacingRight=4;overflow=hidden;rotatable=0;points=[[0,0.5],[1,0.5]];portConstraint=eastwest;" vertex="1" parent="Y3e_ZOHxvSrWSQM1bqO8-3">
          <mxGeometry y="502" width="350" height="26" as="geometry" />
        </mxCell>
        <mxCell id="Y3e_ZOHxvSrWSQM1bqO8-57" value="+ annula_dipendente(): void" style="text;strokeColor=none;fillColor=none;align=left;verticalAlign=top;spacingLeft=4;spacingRight=4;overflow=hidden;rotatable=0;points=[[0,0.5],[1,0.5]];portConstraint=eastwest;" vertex="1" parent="Y3e_ZOHxvSrWSQM1bqO8-3">
          <mxGeometry y="528" width="350" height="26" as="geometry" />
        </mxCell>
        <mxCell id="Y3e_ZOHxvSrWSQM1bqO8-58" value="+ get_info_dipendente_from_view(): tuple" style="text;strokeColor=none;fillColor=none;align=left;verticalAlign=top;spacingLeft=4;spacingRight=4;overflow=hidden;rotatable=0;points=[[0,0.5],[1,0.5]];portConstraint=eastwest;" vertex="1" parent="Y3e_ZOHxvSrWSQM1bqO8-3">
          <mxGeometry y="554" width="350" height="26" as="geometry" />
        </mxCell>
        <mxCell id="Y3e_ZOHxvSrWSQM1bqO8-17" value="+ add_fornitore(): void" style="text;strokeColor=none;fillColor=none;align=left;verticalAlign=top;spacingLeft=4;spacingRight=4;overflow=hidden;rotatable=0;points=[[0,0.5],[1,0.5]];portConstraint=eastwest;" vertex="1" parent="Y3e_ZOHxvSrWSQM1bqO8-3">
          <mxGeometry y="580" width="350" height="26" as="geometry" />
        </mxCell>
        <mxCell id="Y3e_ZOHxvSrWSQM1bqO8-16" value="+ modifica_fornitore(): void" style="text;strokeColor=none;fillColor=none;align=left;verticalAlign=top;spacingLeft=4;spacingRight=4;overflow=hidden;rotatable=0;points=[[0,0.5],[1,0.5]];portConstraint=eastwest;" vertex="1" parent="Y3e_ZOHxvSrWSQM1bqO8-3">
          <mxGeometry y="606" width="350" height="26" as="geometry" />
        </mxCell>
        <mxCell id="Y3e_ZOHxvSrWSQM1bqO8-20" value="+ elimina_fornitori(): void" style="text;strokeColor=none;fillColor=none;align=left;verticalAlign=top;spacingLeft=4;spacingRight=4;overflow=hidden;rotatable=0;points=[[0,0.5],[1,0.5]];portConstraint=eastwest;" vertex="1" parent="Y3e_ZOHxvSrWSQM1bqO8-3">
          <mxGeometry y="632" width="350" height="26" as="geometry" />
        </mxCell>
        <mxCell id="Y3e_ZOHxvSrWSQM1bqO8-19" value="+ ricerca_fornitore(): void" style="text;strokeColor=none;fillColor=none;align=left;verticalAlign=top;spacingLeft=4;spacingRight=4;overflow=hidden;rotatable=0;points=[[0,0.5],[1,0.5]];portConstraint=eastwest;" vertex="1" parent="Y3e_ZOHxvSrWSQM1bqO8-3">
          <mxGeometry y="658" width="350" height="26" as="geometry" />
        </mxCell>
        <mxCell id="Y3e_ZOHxvSrWSQM1bqO8-18" value="+ salva_fornitore(): void" style="text;strokeColor=none;fillColor=none;align=left;verticalAlign=top;spacingLeft=4;spacingRight=4;overflow=hidden;rotatable=0;points=[[0,0.5],[1,0.5]];portConstraint=eastwest;" vertex="1" parent="Y3e_ZOHxvSrWSQM1bqO8-3">
          <mxGeometry y="684" width="350" height="26" as="geometry" />
        </mxCell>
        <mxCell id="Y3e_ZOHxvSrWSQM1bqO8-59" value="+ on_annula_fornitore_clicked(): void" style="text;strokeColor=none;fillColor=none;align=left;verticalAlign=top;spacingLeft=4;spacingRight=4;overflow=hidden;rotatable=0;points=[[0,0.5],[1,0.5]];portConstraint=eastwest;" vertex="1" parent="Y3e_ZOHxvSrWSQM1bqO8-3">
          <mxGeometry y="710" width="350" height="26" as="geometry" />
        </mxCell>
        <mxCell id="Y3e_ZOHxvSrWSQM1bqO8-60" value="+ annula_fornitore(): void" style="text;strokeColor=none;fillColor=none;align=left;verticalAlign=top;spacingLeft=4;spacingRight=4;overflow=hidden;rotatable=0;points=[[0,0.5],[1,0.5]];portConstraint=eastwest;" vertex="1" parent="Y3e_ZOHxvSrWSQM1bqO8-3">
          <mxGeometry y="736" width="350" height="26" as="geometry" />
        </mxCell>
        <mxCell id="Y3e_ZOHxvSrWSQM1bqO8-61" value="+ get_info_fornitore_from_view(): tuple" style="text;strokeColor=none;fillColor=none;align=left;verticalAlign=top;spacingLeft=4;spacingRight=4;overflow=hidden;rotatable=0;points=[[0,0.5],[1,0.5]];portConstraint=eastwest;" vertex="1" parent="Y3e_ZOHxvSrWSQM1bqO8-3">
          <mxGeometry y="762" width="350" height="26" as="geometry" />
        </mxCell>
        <mxCell id="Y3e_ZOHxvSrWSQM1bqO8-62" value="+ checkpB_to_enable(): void" style="text;strokeColor=none;fillColor=none;align=left;verticalAlign=top;spacingLeft=4;spacingRight=4;overflow=hidden;rotatable=0;points=[[0,0.5],[1,0.5]];portConstraint=eastwest;" vertex="1" parent="Y3e_ZOHxvSrWSQM1bqO8-3">
          <mxGeometry y="788" width="350" height="26" as="geometry" />
        </mxCell>
        <mxCell id="Y3e_ZOHxvSrWSQM1bqO8-63" value="+ enable_pB(QPushButton,QPushButton,QTableWidget): void" style="text;strokeColor=none;fillColor=none;align=left;verticalAlign=top;spacingLeft=4;spacingRight=4;overflow=hidden;rotatable=0;points=[[0,0.5],[1,0.5]];portConstraint=eastwest;" vertex="1" parent="Y3e_ZOHxvSrWSQM1bqO8-3">
          <mxGeometry y="814" width="350" height="26" as="geometry" />
        </mxCell>
        <mxCell id="Y3e_ZOHxvSrWSQM1bqO8-64" value="+ aggiornaTabelle(QTableWidget, list): void" style="text;strokeColor=none;fillColor=none;align=left;verticalAlign=top;spacingLeft=4;spacingRight=4;overflow=hidden;rotatable=0;points=[[0,0.5],[1,0.5]];portConstraint=eastwest;" vertex="1" parent="Y3e_ZOHxvSrWSQM1bqO8-3">
          <mxGeometry y="840" width="350" height="26" as="geometry" />
        </mxCell>
        <mxCell id="Y3e_ZOHxvSrWSQM1bqO8-65" value="+ get_item(info): void" style="text;strokeColor=none;fillColor=none;align=left;verticalAlign=top;spacingLeft=4;spacingRight=4;overflow=hidden;rotatable=0;points=[[0,0.5],[1,0.5]];portConstraint=eastwest;" vertex="1" parent="Y3e_ZOHxvSrWSQM1bqO8-3">
          <mxGeometry y="866" width="350" height="26" as="geometry" />
        </mxCell>
        <mxCell id="Y3e_ZOHxvSrWSQM1bqO8-66" value="+ check_dipendente(): void" style="text;strokeColor=none;fillColor=none;align=left;verticalAlign=top;spacingLeft=4;spacingRight=4;overflow=hidden;rotatable=0;points=[[0,0.5],[1,0.5]];portConstraint=eastwest;" vertex="1" parent="Y3e_ZOHxvSrWSQM1bqO8-3">
          <mxGeometry y="892" width="350" height="26" as="geometry" />
        </mxCell>
        <mxCell id="Y3e_ZOHxvSrWSQM1bqO8-67" value="+ stampaPDF(list, str): void" style="text;strokeColor=none;fillColor=none;align=left;verticalAlign=top;spacingLeft=4;spacingRight=4;overflow=hidden;rotatable=0;points=[[0,0.5],[1,0.5]];portConstraint=eastwest;" vertex="1" parent="Y3e_ZOHxvSrWSQM1bqO8-3">
          <mxGeometry y="918" width="350" height="26" as="geometry" />
        </mxCell>
        <mxCell id="Y3e_ZOHxvSrWSQM1bqO8-108" value="RicercaAnagraficheView" style="swimlane;fontStyle=1;align=center;verticalAlign=top;childLayout=stackLayout;horizontal=1;startSize=26;horizontalStack=0;resizeParent=1;resizeParentMax=0;resizeLast=0;collapsible=1;marginBottom=0;" vertex="1" parent="Y3e_ZOHxvSrWSQM1bqO8-0">
          <mxGeometry x="410" y="56" width="350" height="268" as="geometry" />
        </mxCell>
        <mxCell id="Y3e_ZOHxvSrWSQM1bqO8-109" value="+ controller: AnagraficheController&#xa;" style="text;strokeColor=none;fillColor=none;align=left;verticalAlign=top;spacingLeft=4;spacingRight=4;overflow=hidden;rotatable=0;points=[[0,0.5],[1,0.5]];portConstraint=eastwest;" vertex="1" parent="Y3e_ZOHxvSrWSQM1bqO8-108">
          <mxGeometry y="26" width="350" height="26" as="geometry" />
        </mxCell>
        <mxCell id="Y3e_ZOHxvSrWSQM1bqO8-110" value="+ callback: AnagraficheView&#xa;" style="text;strokeColor=none;fillColor=none;align=left;verticalAlign=top;spacingLeft=4;spacingRight=4;overflow=hidden;rotatable=0;points=[[0,0.5],[1,0.5]];portConstraint=eastwest;" vertex="1" parent="Y3e_ZOHxvSrWSQM1bqO8-108">
          <mxGeometry y="52" width="350" height="26" as="geometry" />
        </mxCell>
        <mxCell id="Y3e_ZOHxvSrWSQM1bqO8-111" value="+ table: QTableWidget" style="text;strokeColor=none;fillColor=none;align=left;verticalAlign=top;spacingLeft=4;spacingRight=4;overflow=hidden;rotatable=0;points=[[0,0.5],[1,0.5]];portConstraint=eastwest;" vertex="1" parent="Y3e_ZOHxvSrWSQM1bqO8-108">
          <mxGeometry y="78" width="350" height="26" as="geometry" />
        </mxCell>
        <mxCell id="Y3e_ZOHxvSrWSQM1bqO8-112" value="+ buttons: list&#xa;" style="text;strokeColor=none;fillColor=none;align=left;verticalAlign=top;spacingLeft=4;spacingRight=4;overflow=hidden;rotatable=0;points=[[0,0.5],[1,0.5]];portConstraint=eastwest;" vertex="1" parent="Y3e_ZOHxvSrWSQM1bqO8-108">
          <mxGeometry y="104" width="350" height="26" as="geometry" />
        </mxCell>
        <mxCell id="Y3e_ZOHxvSrWSQM1bqO8-114" value="" style="line;strokeWidth=1;fillColor=none;align=left;verticalAlign=middle;spacingTop=-1;spacingLeft=3;spacingRight=3;rotatable=0;labelPosition=right;points=[];portConstraint=eastwest;" vertex="1" parent="Y3e_ZOHxvSrWSQM1bqO8-108">
          <mxGeometry y="130" width="350" height="8" as="geometry" />
        </mxCell>
        <mxCell id="Y3e_ZOHxvSrWSQM1bqO8-115" value="+ ricerca_cliente(): void" style="text;strokeColor=none;fillColor=none;align=left;verticalAlign=top;spacingLeft=4;spacingRight=4;overflow=hidden;rotatable=0;points=[[0,0.5],[1,0.5]];portConstraint=eastwest;" vertex="1" parent="Y3e_ZOHxvSrWSQM1bqO8-108">
          <mxGeometry y="138" width="350" height="26" as="geometry" />
        </mxCell>
        <mxCell id="Y3e_ZOHxvSrWSQM1bqO8-116" value="+ ricerca_dipendente(): void" style="text;strokeColor=none;fillColor=none;align=left;verticalAlign=top;spacingLeft=4;spacingRight=4;overflow=hidden;rotatable=0;points=[[0,0.5],[1,0.5]];portConstraint=eastwest;" vertex="1" parent="Y3e_ZOHxvSrWSQM1bqO8-108">
          <mxGeometry y="164" width="350" height="26" as="geometry" />
        </mxCell>
        <mxCell id="Y3e_ZOHxvSrWSQM1bqO8-117" value="+ ricerca_fornitore(): void" style="text;strokeColor=none;fillColor=none;align=left;verticalAlign=top;spacingLeft=4;spacingRight=4;overflow=hidden;rotatable=0;points=[[0,0.5],[1,0.5]];portConstraint=eastwest;" vertex="1" parent="Y3e_ZOHxvSrWSQM1bqO8-108">
          <mxGeometry y="190" width="350" height="26" as="geometry" />
        </mxCell>
        <mxCell id="Y3e_ZOHxvSrWSQM1bqO8-118" value="+ on_ricercacliked(list): void" style="text;strokeColor=none;fillColor=none;align=left;verticalAlign=top;spacingLeft=4;spacingRight=4;overflow=hidden;rotatable=0;points=[[0,0.5],[1,0.5]];portConstraint=eastwest;" vertex="1" parent="Y3e_ZOHxvSrWSQM1bqO8-108">
          <mxGeometry y="216" width="350" height="26" as="geometry" />
        </mxCell>
        <mxCell id="Y3e_ZOHxvSrWSQM1bqO8-119" value="+ on_annullacliked(list): void" style="text;strokeColor=none;fillColor=none;align=left;verticalAlign=top;spacingLeft=4;spacingRight=4;overflow=hidden;rotatable=0;points=[[0,0.5],[1,0.5]];portConstraint=eastwest;" vertex="1" parent="Y3e_ZOHxvSrWSQM1bqO8-108">
          <mxGeometry y="242" width="350" height="26" as="geometry" />
        </mxCell>
      </root>
    </mxGraphModel>
  </diagram>
</mxfile>
